<svg xmlns="http://www.w3.org/2000/svg"
    xmlns:xlink="http://www.w3.org/1999/xlink"
    preserveAspectRatio="xMidYMid meet" version="1.0"
    viewBox="-1.8 -3.0 898.6 769.2" zoomAndPan="magnify"
    style="fill: rgb(253, 137, 23);" original_string_length="2785"
    width="156.5007818309232px" height="133.86996799552827px"><g><g
            id="__id61_sl1omqrfp"><path clip-rule="evenodd"
                d="M194.2,403.7c4.1-16.1-1.3-25.7-9.4-35C149,327.9,103.4,304,61.1,274.5 c-17.5-12.2-35.7-22.9-53.5-34.6c-8.1-5.3-9.4-14.6-5.6-24.9c3.6-9.8,10-7.7,16.7-6.5c7.4,1.3,15.1,1.5,22.7,0.8 c88.1-8.9,175.7-6.9,263.4-8.2c5.3-0.1,8.1-2.2,11.3-6.9C365.4,123.2,422.8,62.7,483.1,5.9c6.7-6.3,12.4-8.9,17.7-0.8 c5.2,7.8,8.2,163.9,17.6,231.1c1.8,13.2,5.9,23.8,17.1,31.1c74.9,48.5,154.6,85.9,232.7,127c7.5,4,13.9,8.8,11.6,19.6 c-2.5,11.8-10.8,11.7-19.6,13.1c-49.9,8-99.1,23.4-148.7,34.8c-28,6.5-43,19.5-51.3,56.1C544.1,590,519.3,660,490.6,727.7 c-16,37.9-22.7,38.5-42.7,7.8c-29.6-45.4-73.2-198.1-80.3-219.5c-1.5-4.7-3.1-10.6-9.4-4.9c-36.5,33.5-168.1,124.6-193.1,146.1 c-5.9,5.1-11.5,9.5-17.7,4.3c-6.2-5.2-6.3-13-4.2-22C152.7,599.9,184.5,442.2,194.2,403.7z M201.6,492.5 c-8.5,36.8-17,73.6-25.4,110.4c-0.8,3.5-3.6,8.5-0.2,10.4c1.7,0.9,5.7-2.7,8.4-4.8c18.3-14.4,36.6-28.9,54.8-43.6 c40.8-32.7,88.5-51.1,123.8-95.6c7.4-9.3,17.7-3,21,8.5c12.3,43.3,24.4,86.7,35.4,130.5c9,35.7,22.1,68.3,39.8,98.1 c5.7,9.6,9.2,13,16-1.6c13.5-28.7,22.7-59.2,33.7-88.9c18-48.7,31.6-98.6,38.2-150.4c1.3-10,6.5-13.3,14.1-16.2 c50-18.8,101.2-27.6,151.7-41.7c2.9-0.8,5.6-3,8.4-4.6c-2.2-1.7-4.3-3.8-6.7-5.1c-61.6-33.6-123.3-66.7-184.7-100.8 c-14.4-8-29.9-14-33.6-38.1c-10-64.2-20.1-128.3-26.8-193.4c-0.9-8.4-0.5-16.9-10.6-6.9c-42.9,42.3-85.8,85.3-117.6,140 c-15.5,26.7-27.1,33.4-54.2,30.5c-73.3-8-148.2-4.5-222.9,2c-3.7,0.3-9-1.7-10.7,3.7c-0.5,1.7,5,6.2,8.2,8.6 c52,38.1,107.1,70.7,154.5,117c6.2,6,10.6,11.4,7.9,22.6C215.6,419.3,200.7,492.4,201.6,492.5z"
                fill-rule="evenodd" style="fill: inherit;" /></g></g><g
        clip-rule="evenodd" fill-rule="evenodd" id="__id62_sl1omqrfp"><path
            d="M833.2,674.4c2.5,6,2.7,9.4,0.1,12.4c-3.4,3.9-8.1,4.2-12,1.9 c-9.4-5.5-19.1-10.9-27.3-17.9c-43-36.7-89.4-68.8-134.2-103.1c-4.9-3.7-9.8-7.4-14-11.9c-4.4-4.8-12.2-9.7-5.3-17.5 c6-6.9,13.5-5.2,20-0.2c54.4,41.8,108.8,83.7,163.1,125.8C827.9,667.3,831.2,672.1,833.2,674.4z"
            style="fill: inherit;" /><path
            d="M774.7,512.2c6.3-2.7,11.4-1.2,16.7,1.6c26.9,14.2,55.7,22.4,85.7,26.7 c8.8,1.3,19.7,2.5,18.1,14.1c-1.7,13-12.6,11.4-22.7,9.5c-32.7-6.3-64.2-16.2-94.8-29.1c-5.7-2.4-11.2-5.7-11.3-12.9 C766.4,516.6,770.4,513.7,774.7,512.2z"
            style="fill: inherit;" /><path
            d="M607.5,685.9c-2-7-4.6-16.6-7.6-26.2c-3.1-10,1.9-15.1,10.7-17.2 c8.7-2.1,14.4,1.6,16.1,10.7c4.3,23.5,14.8,44.5,27.1,64.6c5,8.2,5.2,16.5-3.8,21.5c-9.3,5.2-17.2,0.5-21.6-8.2 C621.4,717.1,615.2,702.7,607.5,685.9z"
            style="fill: inherit;" /></g></svg>